<?xml version="1.0" encoding="UTF-8"?>
<svg version="1.1" xmlns="http://www.w3.org/2000/svg" width="512" height="512">
<path d="M0 0 C4.77151615 4.29334715 7.78077003 8.79287765 8.22705078 15.3215332 C8.21134033 17.16751099 8.21134033 17.16751099 8.1953125 19.05078125 C8.1924826 19.70958786 8.18965271 20.36839447 8.18673706 21.04716492 C8.17560924 23.13580062 8.15051948 25.22399556 8.125 27.3125 C8.11496059 28.73501982 8.10583642 30.1575464 8.09765625 31.58007812 C8.07569447 35.05352681 8.04121646 38.52672033 8 42 C8.99 41.67 9.98 41.34 11 41 C19.3497873 40.37346473 25.03413215 40.69511013 31.625 46.1875 C36.05718062 51.43613495 38.87497707 56.56058903 38.33422852 63.59350586 C37.73012039 67.94317263 36.55927128 71.39242908 34 75 C31.328125 76.94067383 31.328125 76.94067383 28.140625 78.88671875 C19.72793004 84.33355443 12.44304459 90.269309 9 100 C4.80115934 122.61093747 7.45885943 147.19601208 9 170 C42.67828607 143.910126 42.67828607 143.910126 60.52388 107.99301147 C60.67564754 101.73563947 59.94167703 95.50939884 58.79452515 89.36373901 C57.5348896 82.54783475 59.13060457 79.04642218 62.6875 73.25 C67.74637834 68.3278481 72.44110024 66.73196164 79.5 66.4375 C85.54292383 66.63356242 89.52062717 67.92985383 94 72 C96.375 74.6875 96.375 74.6875 98 77 C98.66 77.66 99.32 78.32 100 79 C100.56396484 78.40985107 101.12792969 77.81970215 101.70898438 77.21166992 C104.29254118 74.52363882 106.89588864 71.85561691 109.5 69.1875 C110.386875 68.25873047 111.27375 67.32996094 112.1875 66.37304688 C118.28625382 60.16218361 122.66247074 56.57187814 131.5 55.625 C138.57449852 56.38298198 144.01783854 58.79137666 149 64 C152.45616151 69.61357909 153.7255932 74.46966121 153 81 C150.95826467 89.22962619 145.82410416 93.75956466 139.8125 99.5 C138.40194336 100.87671875 138.40194336 100.87671875 136.96289062 102.28125 C134.65288207 104.53262889 132.33201101 106.77145705 130 109 C130.7938208 109.62777344 131.5876416 110.25554687 132.40551758 110.90234375 C137.79985756 115.26370341 141.37893773 119.89468866 142.75 126.75 C143.42894622 133.52688917 141.63983104 139.08618048 137.4921875 144.4609375 C134.1516952 147.90636673 129.77218481 150.32881327 125 151 C122.65285865 150.58941241 120.31514391 150.12405368 117.984375 149.62890625 C106.09118519 147.77480719 94.18891803 147.16952991 83.80114746 154.14941406 C66.98366579 167.04302619 52.78689405 184.02191558 39 200 C80.75248678 205.37587822 80.75248678 205.37587822 118.86328125 194.57421875 C124.30367113 189.75746738 128.1957824 183.8224637 131.97314453 177.67211914 C135.149975 173.48392238 138.96149629 172.05891176 144 171 C150.74536569 170.18590414 156.07408724 172.20455354 161.75 175.6875 C166.65008691 180.72370044 168.24448139 185.28107652 168.3125 192.3125 C168.2334372 195.56239709 168.03169938 197.90490187 167 201 C167.86689453 200.97905273 168.73378906 200.95810547 169.62695312 200.93652344 C172.8772379 200.86790438 176.12715057 200.81798549 179.37792969 200.78027344 C180.77844473 200.7602937 182.17887782 200.7330998 183.57910156 200.69824219 C192.77046954 200.47534168 199.7070215 200.52446991 207.0234375 206.7109375 C211.36940976 212.06175883 213.5396813 216.74612818 213.30859375 223.85546875 C212.32827686 230.66805066 209.13969884 235.52428238 203.87890625 239.80859375 C199.25535842 242.74036524 195.38901704 243.24160866 189.94921875 243.1953125 C189.29041214 243.1924826 188.63160553 243.18965271 187.95283508 243.18673706 C185.86419938 243.17560924 183.77600444 243.15051948 181.6875 243.125 C180.26498018 243.11496059 178.8424536 243.10583642 177.41992188 243.09765625 C173.94647319 243.07569447 170.47327967 243.04121646 167 243 C167.33 243.99 167.66 244.98 168 246 C168.48819183 252.50609496 168.90462405 258.47966944 165 264 C159.56343207 270.15190582 155.20314632 272.23437222 147.20703125 273.27734375 C142.21067185 272.84525908 138.21221427 271.80557845 134 269 C131.98168945 266.32592773 131.98168945 266.32592773 130.015625 263.140625 C124.58344632 254.73538712 118.72412216 247.44880637 109 244 C86.39100303 239.79792748 61.8025033 242.45895976 39 244 C65.089874 277.67828607 65.089874 277.67828607 101.00698853 295.52388 C107.26436053 295.67564754 113.49060116 294.94167703 119.63626099 293.79452515 C126.45216525 292.5348896 129.95357782 294.13060457 135.75 297.6875 C140.6721519 302.74637834 142.26803836 307.44110024 142.5625 314.5 C142.36643758 320.54292383 141.07014617 324.52062717 137 329 C134.3125 331.375 134.3125 331.375 132 333 C131.34 333.66 130.68 334.32 130 335 C130.59014893 335.56396484 131.18029785 336.12792969 131.78833008 336.70898438 C134.47636118 339.29254118 137.14438309 341.89588864 139.8125 344.5 C140.74126953 345.386875 141.67003906 346.27375 142.62695312 347.1875 C148.83781639 353.28625382 152.42812186 357.66247074 153.375 366.5 C152.60609503 373.6764464 150.09292644 378.90707356 145 384 C139.66235512 387.51799322 134.01622456 388.50407277 127.72216797 387.71411133 C119.55580064 385.73897811 114.99236059 380.8085123 109.375 374.8125 C108.46621094 373.87212891 107.55742187 372.93175781 106.62109375 371.96289062 C104.39722331 369.65708811 102.19143766 367.33657655 100 365 C99.37222656 365.7938208 98.74445313 366.5876416 98.09765625 367.40551758 C94.12961826 372.31337834 89.50732371 376.60101873 83.046875 377.3359375 C70.23764058 377.48770568 70.23764058 377.48770568 65 373 C61.76022275 369.1278978 58.75903242 365.07818562 58 360 C58.41058759 357.65285865 58.87594632 355.31514391 59.37109375 352.984375 C61.22519281 341.09118519 61.83047009 329.18891803 54.85058594 318.80114746 C41.95697381 301.98366579 24.97808442 287.78689405 9 274 C3.63162581 315.7606629 3.63162581 315.7606629 14.42578125 353.8984375 C19.23631006 359.35295029 25.16023294 363.29427655 31.32836914 367.05883789 C35.31479033 369.95530457 36.91333074 373.26998703 38 378 C38.97979817 384.26235846 37.82042986 389.14332481 34.73046875 394.69140625 C31.58301611 398.89037806 27.93470557 401.28032988 23 403 C17.8071193 403.63805468 12.98417805 403.66139268 8 402 C8.02094727 402.86689453 8.04189453 403.73378906 8.06347656 404.62695312 C8.13209562 407.8772379 8.18201451 411.12715057 8.21972656 414.37792969 C8.2397063 415.77844473 8.2669002 417.17887782 8.30175781 418.57910156 C8.52506244 427.78713348 8.43191863 434.64863904 2.32421875 442.0234375 C-3.14759222 446.54192579 -7.88229532 448.30694523 -15.0625 447.8125 C-22.1435931 446.85906992 -26.14740885 444.27805087 -30.703125 438.9140625 C-33.79821129 434.34601346 -34.24177815 430.40893259 -34.1953125 424.94921875 C-34.1924826 424.29041214 -34.18965271 423.63160553 -34.18673706 422.95283508 C-34.17560924 420.86419938 -34.15051948 418.77600444 -34.125 416.6875 C-34.11496059 415.26498018 -34.10583642 413.8424536 -34.09765625 412.41992188 C-34.07569447 408.94647319 -34.04121646 405.47327967 -34 402 C-34.99 402.33 -35.98 402.66 -37 403 C-45.3497873 403.62653527 -51.03413215 403.30488987 -57.625 397.8125 C-62.05718062 392.56386505 -64.87497707 387.43941097 -64.33422852 380.40649414 C-63.73012039 376.05682737 -62.55927128 372.60757092 -60 369 C-57.328125 367.05932617 -57.328125 367.05932617 -54.140625 365.11328125 C-45.72793004 359.66644557 -38.44304459 353.730691 -35 344 C-30.80115934 321.38906253 -33.45885943 296.80398792 -35 274 C-68.67828607 300.089874 -68.67828607 300.089874 -86.52388 336.00698853 C-86.67564754 342.26436053 -85.94167703 348.49060116 -84.79452515 354.63626099 C-83.5348896 361.45216525 -85.13060457 364.95357782 -88.6875 370.75 C-93.74637834 375.6721519 -98.44110024 377.26803836 -105.5 377.5625 C-111.54292383 377.36643758 -115.52062717 376.07014617 -120 372 C-122.375 369.3125 -122.375 369.3125 -124 367 C-124.66 366.34 -125.32 365.68 -126 365 C-126.55349121 365.59014893 -127.10698242 366.18029785 -127.67724609 366.78833008 C-130.22414708 369.48179051 -132.79894441 372.14692191 -135.375 374.8125 C-136.68017578 376.2056543 -136.68017578 376.2056543 -138.01171875 377.62695312 C-144.17111204 383.94603439 -149.45271582 387.79691805 -158.46362305 388.07641602 C-165.446095 387.829549 -170.60575439 384.45725207 -175.375 379.5625 C-178.71647349 374.29325334 -179.69858869 369.18686687 -179 363 C-176.98262029 354.76980492 -171.81681632 350.23347623 -165.8125 344.5 C-164.87212891 343.5821875 -163.93175781 342.664375 -162.96289062 341.71875 C-160.65288207 339.46737111 -158.33201101 337.22854295 -156 335 C-156.78930908 334.3716626 -157.57861816 333.7433252 -158.3918457 333.09594727 C-164.65957185 328.05911969 -167.79895828 323.84560824 -168.87890625 315.70703125 C-169.16213175 309.37557082 -167.34954239 304.53764665 -163.4921875 299.5390625 C-160.1516952 296.09363327 -155.77218481 293.67118673 -151 293 C-148.65285865 293.41058759 -146.31514391 293.87594632 -143.984375 294.37109375 C-132.09118519 296.22519281 -120.18891803 296.83047009 -109.80114746 289.85058594 C-92.98366579 276.95697381 -78.78689405 259.97808442 -65 244 C-106.75248678 238.62412178 -106.75248678 238.62412178 -144.86328125 249.42578125 C-150.30538019 254.24404577 -154.19053399 260.18216382 -157.98095703 266.32641602 C-161.17784808 270.55968734 -164.90000171 271.98811298 -170 273 C-176.44424382 273.72233967 -182.06746109 272.19500702 -187.34375 268.46484375 C-190.70992801 265.4876816 -192.59523262 262.21430215 -194 258 C-194.09435979 256.00179272 -194.12990301 254.00042797 -194.125 252 C-194.12886719 250.4221875 -194.12886719 250.4221875 -194.1328125 248.8125 C-194 246 -194 246 -193 243 C-193.86689453 243.02094727 -194.73378906 243.04189453 -195.62695312 243.06347656 C-198.8772379 243.13209562 -202.12715057 243.18201451 -205.37792969 243.21972656 C-206.77844473 243.2397063 -208.17887782 243.2669002 -209.57910156 243.30175781 C-218.77046954 243.52465832 -225.7070215 243.47553009 -233.0234375 237.2890625 C-237.36940976 231.93824117 -239.5396813 227.25387182 -239.30859375 220.14453125 C-238.32827686 213.33194934 -235.13969884 208.47571762 -229.87890625 204.19140625 C-225.25535842 201.25963476 -221.38901704 200.75839134 -215.94921875 200.8046875 C-215.29041214 200.8075174 -214.63160553 200.81034729 -213.95283508 200.81326294 C-211.86419938 200.82439076 -209.77600444 200.84948052 -207.6875 200.875 C-206.26498018 200.88503941 -204.8424536 200.89416358 -203.41992188 200.90234375 C-199.94647319 200.92430553 -196.47327967 200.95878354 -193 201 C-193.33 200.01 -193.66 199.02 -194 198 C-194.57877816 191.59548757 -194.78372142 185.43849484 -191.47265625 179.75390625 C-186.84186044 174.23871443 -180.9139502 171.39139502 -173.875 170.6875 C-168.61181425 171.11195046 -164.47999799 172.11664612 -160 175 C-157.97412109 177.67260742 -157.97412109 177.67260742 -156.015625 180.859375 C-150.58579701 189.26511405 -144.72259866 196.55173397 -135 200 C-112.39100303 204.20207252 -87.8025033 201.54104024 -65 200 C-91.089874 166.32171393 -91.089874 166.32171393 -127.00698853 148.47612 C-133.26436053 148.32435246 -139.49060116 149.05832297 -145.63626099 150.20547485 C-152.45216525 151.4651104 -155.95357782 149.86939543 -161.75 146.3125 C-166.6721519 141.25362166 -168.26803836 136.55889976 -168.5625 129.5 C-168.36643758 123.45707617 -167.07014617 119.47937283 -163 115 C-160.3125 112.625 -160.3125 112.625 -158 111 C-157.34 110.34 -156.68 109.68 -156 109 C-156.59014893 108.43603516 -157.18029785 107.87207031 -157.78833008 107.29101562 C-160.47636118 104.70745882 -163.14438309 102.10411136 -165.8125 99.5 C-167.2056543 98.1696875 -167.2056543 98.1696875 -168.62695312 96.8125 C-175.03615948 90.51898329 -178.42799548 86.14804072 -179.4375 77.0625 C-179.1311219 70.56473117 -176.44307681 64.96462178 -171.6875 60.5625 C-166.34644734 56.45136991 -160.64519989 55.41708773 -154 56 C-145.77146078 58.03685637 -141.23726921 63.17921153 -135.5 69.1875 C-134.12328125 70.59805664 -134.12328125 70.59805664 -132.71875 72.03710938 C-130.46737111 74.34711793 -128.22854295 76.66798899 -126 79 C-125.37222656 78.2061792 -124.74445313 77.4123584 -124.09765625 76.59448242 C-120.04029514 71.57614251 -115.42517607 67.44360935 -108.86328125 66.59375 C-101.65903353 66.40353884 -96.55054932 66.67261643 -90.7734375 71.21484375 C-87.22725831 74.78445584 -84.72526009 78.96018811 -84 84 C-84.41058759 86.34714135 -84.87594632 88.68485609 -85.37109375 91.015625 C-87.22519281 102.90881481 -87.83047009 114.81108197 -80.85058594 125.19885254 C-67.95697381 142.01633421 -50.97808442 156.21310595 -35 170 C-29.63162581 128.2393371 -29.63162581 128.2393371 -40.42578125 90.1015625 C-45.23631006 84.64704971 -51.16023294 80.70572345 -57.32836914 76.94116211 C-61.31479033 74.04469543 -62.91333074 70.73001297 -64 66 C-65.13567377 58.7260815 -63.21102755 53.01725383 -59 47 C-54.14748593 42.35984979 -49.60607588 40.85880864 -43 40.875 C-41.948125 40.87242188 -40.89625 40.86984375 -39.8125 40.8671875 C-37 41 -37 41 -34 42 C-34.02094727 41.13310547 -34.04189453 40.26621094 -34.06347656 39.37304688 C-34.13209562 36.1227621 -34.18201451 32.87284943 -34.21972656 29.62207031 C-34.2397063 28.22155527 -34.2669002 26.82112218 -34.30175781 25.42089844 C-34.52465832 16.22953046 -34.47553009 9.2929785 -28.2890625 1.9765625 C-19.3829329 -5.2570545 -9.79680012 -6.19317124 0 0 Z " fill="#FDFDFD" transform="translate(269,34)"/>
<path d="M0 0 C4.77151615 4.29334715 7.78077003 8.79287765 8.22705078 15.3215332 C8.21134033 17.16751099 8.21134033 17.16751099 8.1953125 19.05078125 C8.1924826 19.70958786 8.18965271 20.36839447 8.18673706 21.04716492 C8.17560924 23.13580062 8.15051948 25.22399556 8.125 27.3125 C8.11496059 28.73501982 8.10583642 30.1575464 8.09765625 31.58007812 C8.07569447 35.05352681 8.04121646 38.52672033 8 42 C8.99 41.67 9.98 41.34 11 41 C19.3497873 40.37346473 25.03413215 40.69511013 31.625 46.1875 C36.05718062 51.43613495 38.87497707 56.56058903 38.33422852 63.59350586 C37.73012039 67.94317263 36.55927128 71.39242908 34 75 C31.328125 76.94067383 31.328125 76.94067383 28.140625 78.88671875 C19.72793004 84.33355443 12.44304459 90.269309 9 100 C4.80115934 122.61093747 7.45885943 147.19601208 9 170 C42.67828607 143.910126 42.67828607 143.910126 60.52388 107.99301147 C60.67564754 101.73563947 59.94167703 95.50939884 58.79452515 89.36373901 C57.5348896 82.54783475 59.13060457 79.04642218 62.6875 73.25 C67.74637834 68.3278481 72.44110024 66.73196164 79.5 66.4375 C85.54292383 66.63356242 89.52062717 67.92985383 94 72 C96.375 74.6875 96.375 74.6875 98 77 C98.66 77.66 99.32 78.32 100 79 C100.56396484 78.40985107 101.12792969 77.81970215 101.70898438 77.21166992 C104.29254118 74.52363882 106.89588864 71.85561691 109.5 69.1875 C110.386875 68.25873047 111.27375 67.32996094 112.1875 66.37304688 C118.28625382 60.16218361 122.66247074 56.57187814 131.5 55.625 C138.57449852 56.38298198 144.01783854 58.79137666 149 64 C152.45616151 69.61357909 153.7255932 74.46966121 153 81 C150.95826467 89.22962619 145.82410416 93.75956466 139.8125 99.5 C138.40194336 100.87671875 138.40194336 100.87671875 136.96289062 102.28125 C134.65288207 104.53262889 132.33201101 106.77145705 130 109 C130.7938208 109.62777344 131.5876416 110.25554687 132.40551758 110.90234375 C137.79985756 115.26370341 141.37893773 119.89468866 142.75 126.75 C143.42894622 133.52688917 141.63983104 139.08618048 137.4921875 144.4609375 C134.1516952 147.90636673 129.77218481 150.32881327 125 151 C122.65285865 150.58941241 120.31514391 150.12405368 117.984375 149.62890625 C106.09118519 147.77480719 94.18891803 147.16952991 83.80114746 154.14941406 C66.98366579 167.04302619 52.78689405 184.02191558 39 200 C80.75248678 205.37587822 80.75248678 205.37587822 118.86328125 194.57421875 C124.30367113 189.75746738 128.1957824 183.8224637 131.97314453 177.67211914 C135.149975 173.48392238 138.96149629 172.05891176 144 171 C150.74536569 170.18590414 156.07408724 172.20455354 161.75 175.6875 C166.65008691 180.72370044 168.24448139 185.28107652 168.3125 192.3125 C168.2334372 195.56239709 168.03169938 197.90490187 167 201 C167.86689453 200.97905273 168.73378906 200.95810547 169.62695312 200.93652344 C172.8772379 200.86790438 176.12715057 200.81798549 179.37792969 200.78027344 C180.77844473 200.7602937 182.17887782 200.7330998 183.57910156 200.69824219 C192.77046954 200.47534168 199.7070215 200.52446991 207.0234375 206.7109375 C211.36940976 212.06175883 213.5396813 216.74612818 213.30859375 223.85546875 C212.32827686 230.66805066 209.13969884 235.52428238 203.87890625 239.80859375 C199.25535842 242.74036524 195.38901704 243.24160866 189.94921875 243.1953125 C189.29041214 243.1924826 188.63160553 243.18965271 187.95283508 243.18673706 C185.86419938 243.17560924 183.77600444 243.15051948 181.6875 243.125 C180.26498018 243.11496059 178.8424536 243.10583642 177.41992188 243.09765625 C173.94647319 243.07569447 170.47327967 243.04121646 167 243 C167.33 243.99 167.66 244.98 168 246 C168.48819183 252.50609496 168.90462405 258.47966944 165 264 C159.56343207 270.15190582 155.20314632 272.23437222 147.20703125 273.27734375 C142.21067185 272.84525908 138.21221427 271.80557845 134 269 C131.98168945 266.32592773 131.98168945 266.32592773 130.015625 263.140625 C124.58344632 254.73538712 118.72412216 247.44880637 109 244 C86.39100303 239.79792748 61.8025033 242.45895976 39 244 C65.089874 277.67828607 65.089874 277.67828607 101.00698853 295.52388 C107.26436053 295.67564754 113.49060116 294.94167703 119.63626099 293.79452515 C126.45216525 292.5348896 129.95357782 294.13060457 135.75 297.6875 C140.6721519 302.74637834 142.26803836 307.44110024 142.5625 314.5 C142.36643758 320.54292383 141.07014617 324.52062717 137 329 C134.3125 331.375 134.3125 331.375 132 333 C131.34 333.66 130.68 334.32 130 335 C130.59014893 335.56396484 131.18029785 336.12792969 131.78833008 336.70898438 C134.47636118 339.29254118 137.14438309 341.89588864 139.8125 344.5 C140.74126953 345.386875 141.67003906 346.27375 142.62695312 347.1875 C148.83781639 353.28625382 152.42812186 357.66247074 153.375 366.5 C152.60609503 373.6764464 150.09292644 378.90707356 145 384 C139.66235512 387.51799322 134.01622456 388.50407277 127.72216797 387.71411133 C119.55580064 385.73897811 114.99236059 380.8085123 109.375 374.8125 C108.46621094 373.87212891 107.55742187 372.93175781 106.62109375 371.96289062 C104.39722331 369.65708811 102.19143766 367.33657655 100 365 C99.37222656 365.7938208 98.74445313 366.5876416 98.09765625 367.40551758 C94.12961826 372.31337834 89.50732371 376.60101873 83.046875 377.3359375 C70.23764058 377.48770568 70.23764058 377.48770568 65 373 C61.76022275 369.1278978 58.75903242 365.07818562 58 360 C58.41058759 357.65285865 58.87594632 355.31514391 59.37109375 352.984375 C61.22519281 341.09118519 61.83047009 329.18891803 54.85058594 318.80114746 C41.95697381 301.98366579 24.97808442 287.78689405 9 274 C3.63162581 315.7606629 3.63162581 315.7606629 14.42578125 353.8984375 C19.23631006 359.35295029 25.16023294 363.29427655 31.32836914 367.05883789 C35.31479033 369.95530457 36.91333074 373.26998703 38 378 C38.97979817 384.26235846 37.82042986 389.14332481 34.73046875 394.69140625 C31.58301611 398.89037806 27.93470557 401.28032988 23 403 C17.8071193 403.63805468 12.98417805 403.66139268 8 402 C8.02094727 402.86689453 8.04189453 403.73378906 8.06347656 404.62695312 C8.13209562 407.8772379 8.18201451 411.12715057 8.21972656 414.37792969 C8.2397063 415.77844473 8.2669002 417.17887782 8.30175781 418.57910156 C8.52506244 427.78713348 8.43191863 434.64863904 2.32421875 442.0234375 C-3.14759222 446.54192579 -7.88229532 448.30694523 -15.0625 447.8125 C-22.1435931 446.85906992 -26.14740885 444.27805087 -30.703125 438.9140625 C-33.79821129 434.34601346 -34.24177815 430.40893259 -34.1953125 424.94921875 C-34.1924826 424.29041214 -34.18965271 423.63160553 -34.18673706 422.95283508 C-34.17560924 420.86419938 -34.15051948 418.77600444 -34.125 416.6875 C-34.11496059 415.26498018 -34.10583642 413.8424536 -34.09765625 412.41992188 C-34.07569447 408.94647319 -34.04121646 405.47327967 -34 402 C-34.99 402.33 -35.98 402.66 -37 403 C-45.3497873 403.62653527 -51.03413215 403.30488987 -57.625 397.8125 C-62.05718062 392.56386505 -64.87497707 387.43941097 -64.33422852 380.40649414 C-63.73012039 376.05682737 -62.55927128 372.60757092 -60 369 C-57.328125 367.05932617 -57.328125 367.05932617 -54.140625 365.11328125 C-45.72793004 359.66644557 -38.44304459 353.730691 -35 344 C-30.80115934 321.38906253 -33.45885943 296.80398792 -35 274 C-68.67828607 300.089874 -68.67828607 300.089874 -86.52388 336.00698853 C-86.67564754 342.26436053 -85.94167703 348.49060116 -84.79452515 354.63626099 C-83.5348896 361.45216525 -85.13060457 364.95357782 -88.6875 370.75 C-93.74637834 375.6721519 -98.44110024 377.26803836 -105.5 377.5625 C-111.54292383 377.36643758 -115.52062717 376.07014617 -120 372 C-122.375 369.3125 -122.375 369.3125 -124 367 C-124.66 366.34 -125.32 365.68 -126 365 C-126.55349121 365.59014893 -127.10698242 366.18029785 -127.67724609 366.78833008 C-130.22414708 369.48179051 -132.79894441 372.14692191 -135.375 374.8125 C-136.68017578 376.2056543 -136.68017578 376.2056543 -138.01171875 377.62695312 C-144.17111204 383.94603439 -149.45271582 387.79691805 -158.46362305 388.07641602 C-165.446095 387.829549 -170.60575439 384.45725207 -175.375 379.5625 C-178.71647349 374.29325334 -179.69858869 369.18686687 -179 363 C-176.98262029 354.76980492 -171.81681632 350.23347623 -165.8125 344.5 C-164.87212891 343.5821875 -163.93175781 342.664375 -162.96289062 341.71875 C-160.65288207 339.46737111 -158.33201101 337.22854295 -156 335 C-156.78930908 334.3716626 -157.57861816 333.7433252 -158.3918457 333.09594727 C-164.65957185 328.05911969 -167.79895828 323.84560824 -168.87890625 315.70703125 C-169.16213175 309.37557082 -167.34954239 304.53764665 -163.4921875 299.5390625 C-160.1516952 296.09363327 -155.77218481 293.67118673 -151 293 C-148.65285865 293.41058759 -146.31514391 293.87594632 -143.984375 294.37109375 C-132.09118519 296.22519281 -120.18891803 296.83047009 -109.80114746 289.85058594 C-92.98366579 276.95697381 -78.78689405 259.97808442 -65 244 C-106.75248678 238.62412178 -106.75248678 238.62412178 -144.86328125 249.42578125 C-150.30538019 254.24404577 -154.19053399 260.18216382 -157.98095703 266.32641602 C-161.17784808 270.55968734 -164.90000171 271.98811298 -170 273 C-176.44424382 273.72233967 -182.06746109 272.19500702 -187.34375 268.46484375 C-190.70992801 265.4876816 -192.59523262 262.21430215 -194 258 C-194.09435979 256.00179272 -194.12990301 254.00042797 -194.125 252 C-194.12886719 250.4221875 -194.12886719 250.4221875 -194.1328125 248.8125 C-194 246 -194 246 -193 243 C-193.86689453 243.02094727 -194.73378906 243.04189453 -195.62695312 243.06347656 C-198.8772379 243.13209562 -202.12715057 243.18201451 -205.37792969 243.21972656 C-206.77844473 243.2397063 -208.17887782 243.2669002 -209.57910156 243.30175781 C-218.77046954 243.52465832 -225.7070215 243.47553009 -233.0234375 237.2890625 C-237.36940976 231.93824117 -239.5396813 227.25387182 -239.30859375 220.14453125 C-238.32827686 213.33194934 -235.13969884 208.47571762 -229.87890625 204.19140625 C-225.25535842 201.25963476 -221.38901704 200.75839134 -215.94921875 200.8046875 C-215.29041214 200.8075174 -214.63160553 200.81034729 -213.95283508 200.81326294 C-211.86419938 200.82439076 -209.77600444 200.84948052 -207.6875 200.875 C-206.26498018 200.88503941 -204.8424536 200.89416358 -203.41992188 200.90234375 C-199.94647319 200.92430553 -196.47327967 200.95878354 -193 201 C-193.33 200.01 -193.66 199.02 -194 198 C-194.57877816 191.59548757 -194.78372142 185.43849484 -191.47265625 179.75390625 C-186.84186044 174.23871443 -180.9139502 171.39139502 -173.875 170.6875 C-168.61181425 171.11195046 -164.47999799 172.11664612 -160 175 C-157.97412109 177.67260742 -157.97412109 177.67260742 -156.015625 180.859375 C-150.58579701 189.26511405 -144.72259866 196.55173397 -135 200 C-112.39100303 204.20207252 -87.8025033 201.54104024 -65 200 C-91.089874 166.32171393 -91.089874 166.32171393 -127.00698853 148.47612 C-133.26436053 148.32435246 -139.49060116 149.05832297 -145.63626099 150.20547485 C-152.45216525 151.4651104 -155.95357782 149.86939543 -161.75 146.3125 C-166.6721519 141.25362166 -168.26803836 136.55889976 -168.5625 129.5 C-168.36643758 123.45707617 -167.07014617 119.47937283 -163 115 C-160.3125 112.625 -160.3125 112.625 -158 111 C-157.34 110.34 -156.68 109.68 -156 109 C-156.59014893 108.43603516 -157.18029785 107.87207031 -157.78833008 107.29101562 C-160.47636118 104.70745882 -163.14438309 102.10411136 -165.8125 99.5 C-167.2056543 98.1696875 -167.2056543 98.1696875 -168.62695312 96.8125 C-175.03615948 90.51898329 -178.42799548 86.14804072 -179.4375 77.0625 C-179.1311219 70.56473117 -176.44307681 64.96462178 -171.6875 60.5625 C-166.34644734 56.45136991 -160.64519989 55.41708773 -154 56 C-145.77146078 58.03685637 -141.23726921 63.17921153 -135.5 69.1875 C-134.12328125 70.59805664 -134.12328125 70.59805664 -132.71875 72.03710938 C-130.46737111 74.34711793 -128.22854295 76.66798899 -126 79 C-125.37222656 78.2061792 -124.74445313 77.4123584 -124.09765625 76.59448242 C-120.04029514 71.57614251 -115.42517607 67.44360935 -108.86328125 66.59375 C-101.65903353 66.40353884 -96.55054932 66.67261643 -90.7734375 71.21484375 C-87.22725831 74.78445584 -84.72526009 78.96018811 -84 84 C-84.41058759 86.34714135 -84.87594632 88.68485609 -85.37109375 91.015625 C-87.22519281 102.90881481 -87.83047009 114.81108197 -80.85058594 125.19885254 C-67.95697381 142.01633421 -50.97808442 156.21310595 -35 170 C-29.63162581 128.2393371 -29.63162581 128.2393371 -40.42578125 90.1015625 C-45.23631006 84.64704971 -51.16023294 80.70572345 -57.32836914 76.94116211 C-61.31479033 74.04469543 -62.91333074 70.73001297 -64 66 C-65.13567377 58.7260815 -63.21102755 53.01725383 -59 47 C-54.14748593 42.35984979 -49.60607588 40.85880864 -43 40.875 C-41.948125 40.87242188 -40.89625 40.86984375 -39.8125 40.8671875 C-37 41 -37 41 -34 42 C-34.02094727 41.13310547 -34.04189453 40.26621094 -34.06347656 39.37304688 C-34.13209562 36.1227621 -34.18201451 32.87284943 -34.21972656 29.62207031 C-34.2397063 28.22155527 -34.2669002 26.82112218 -34.30175781 25.42089844 C-34.52465832 16.22953046 -34.47553009 9.2929785 -28.2890625 1.9765625 C-19.3829329 -5.2570545 -9.79680012 -6.19317124 0 0 Z M-22 11 C-23.13984717 13.27969434 -23.1473056 14.60789911 -23.18945312 17.14257812 C-23.20617065 17.99686401 -23.22288818 18.8511499 -23.2401123 19.73132324 C-23.25368774 20.65529907 -23.26726318 21.5792749 -23.28125 22.53125 C-23.30886414 23.95153503 -23.30886414 23.95153503 -23.33703613 25.4005127 C-23.39589606 28.43361089 -23.44867055 31.46676556 -23.5 34.5 C-23.5675152 38.4897066 -23.64118303 42.4792276 -23.71875 46.46875 C-23.73232544 47.39272583 -23.74590088 48.31670166 -23.7598877 49.26867676 C-23.77660522 50.12296265 -23.79332275 50.97724854 -23.81054688 51.85742188 C-23.82307495 52.61083862 -23.83560303 53.36425537 -23.84851074 54.14050293 C-24 56 -24 56 -25 58 C-28.14516298 58.47177445 -30.24482573 58.53141893 -32.8984375 56.6640625 C-33.55070313 56.11492187 -34.20296875 55.56578125 -34.875 55 C-37.68476048 52.73285101 -39.54219656 51.52602952 -43.1875 51.375 C-47.36651724 52.06008479 -49.08044351 52.9919721 -52 56 C-53.60745059 59.21490118 -53.40305242 61.4301071 -53 65 C-50.25621122 70.27490179 -46.19550751 73.733735 -41.43774414 77.16674805 C-32.04594002 84.29984367 -24.14741693 91.42889552 -22.36929893 103.6006794 C-21.17319925 115.58191666 -21.73456199 127.64401728 -22.30413818 139.64685059 C-22.52807517 144.96251005 -22.60524275 150.28039371 -22.70117188 155.59960938 C-22.86672235 163.33068832 -23.06988148 171.05879284 -23.40795898 178.78442383 C-23.43690247 179.59201645 -23.46584595 180.39960907 -23.4956665 181.23167419 C-23.76660143 186.76660143 -23.76660143 186.76660143 -26 189 C-28.23480225 189.47872925 -28.23480225 189.47872925 -31 189 C-33.29131762 187.18119994 -35.21905375 185.42371815 -37.24316406 183.34033203 C-38.14893188 182.43806885 -38.14893188 182.43806885 -39.07299805 181.51757812 C-41.06609117 179.52610004 -43.04077835 177.51737292 -45.015625 175.5078125 C-46.39511757 174.12153173 -47.77564566 172.73628071 -49.15716553 171.35202026 C-52.04953907 168.44896556 -54.93370504 165.53808859 -57.81152344 162.62060547 C-61.5059063 158.87530774 -65.21308602 155.14302824 -68.92554092 151.41565132 C-72.45949097 147.86692951 -75.98818133 144.31300037 -79.515625 140.7578125 C-80.19190193 140.07662479 -80.86817886 139.39543709 -81.56494904 138.69360733 C-83.47096389 136.77135873 -85.37333391 134.84558465 -87.27441406 132.91845703 C-87.84270935 132.34590179 -88.41100464 131.77334656 -88.996521 131.18344116 C-94.04485504 126.05093536 -94.13231924 123.06263442 -94.140625 116.046875 C-94.15895699 114.21222721 -94.17852767 112.37759145 -94.19921875 110.54296875 C-94.22815959 107.64839453 -94.24999922 104.75459147 -94.25048828 101.85986328 C-94.25383034 99.06733667 -94.28842881 96.27659146 -94.328125 93.484375 C-94.31752045 92.19500031 -94.31752045 92.19500031 -94.30670166 90.87957764 C-94.39252718 86.62400075 -94.68961086 83.84051539 -97.4152832 80.46630859 C-100.50248505 77.52053424 -101.90947984 76.99406937 -106 76.75390625 C-109.3763369 77.16935395 -111.47055744 78.84071976 -114 81 C-115.61854031 84.23708061 -115.34238623 87.79294885 -115.5234375 91.37109375 C-116 94 -116 94 -117.2265625 95.91015625 C-119 97 -119 97 -121.20410156 96.95483398 C-125.2905212 95.55927101 -127.56528903 92.89224437 -130.5078125 89.8125 C-131.115112 89.19479736 -131.7224115 88.57709473 -132.34811401 87.94067383 C-134.28349954 85.96971925 -136.20496948 83.98590685 -138.125 82 C-140.05386328 80.01588908 -141.98557189 78.03477224 -143.92330933 76.05932617 C-145.12756796 74.83056688 -146.32643988 73.5965003 -147.51931763 72.35668945 C-151.13793015 68.65122594 -153.1782431 67.20241743 -158.375 66.625 C-162.91993735 67.09516593 -164.14368962 68.55562572 -167 72 C-167.33 72.33 -167.66 72.66 -168 73 C-168.39601099 78.14814287 -167.95946252 80.81179763 -165 85 C-163.01454511 87.1612055 -160.89887406 89.16943852 -158.765625 91.18359375 C-157.53964415 92.3696985 -156.31440537 93.55657068 -155.08984375 94.74414062 C-153.16592784 96.59982034 -151.23730502 98.44950838 -149.29541016 100.28637695 C-147.41539333 102.06970856 -145.55815839 103.87433665 -143.703125 105.68359375 C-143.11678284 106.22753281 -142.53044067 106.77147186 -141.92633057 107.33189392 C-140.31738281 108.91967773 -140.31738281 108.91967773 -138 112 C-138.01855469 115.33227539 -138.01855469 115.33227539 -139 118 C-141.52924855 119.26462428 -143.48986704 119.14305315 -146.3125 119.25 C-150.24720195 119.5903543 -151.78084451 119.85097427 -155.125 122.125 C-157.39711546 125.60891037 -158 127.8432643 -158 132 C-156.39224629 135.72321911 -154.52671917 138.02262343 -151 140 C-147.97183154 140.40136601 -144.97147714 140.32141349 -141.921875 140.265625 C-140.1028625 140.26839744 -138.28385148 140.27234087 -136.46484375 140.27734375 C-133.60972637 140.26901122 -130.75572793 140.25008148 -127.90087891 140.20947266 C-125.13616439 140.17642826 -122.37418255 140.18703051 -119.609375 140.203125 C-118.76638855 140.17945862 -117.9234021 140.15579224 -117.05487061 140.13140869 C-111.25894169 140.20182801 -108.35803628 141.64722331 -104.24835205 145.68225098 C-103.50639587 146.44710815 -102.7644397 147.21196533 -102 148 C-100.5288576 149.42507177 -99.05755888 150.849985 -97.5839119 152.27246666 C-94.69032909 155.078768 -91.83070952 157.91932537 -88.96875 160.7578125 C-88.35826309 161.36297573 -87.74777618 161.96813896 -87.11878967 162.59164047 C-83.89958557 165.78431167 -80.68393059 168.98051369 -77.47070312 172.17919922 C-74.81611872 174.8203601 -72.15441759 177.45402664 -69.48632812 180.08154297 C-66.25002602 183.26866018 -63.02604772 186.46775501 -59.8106842 189.67599106 C-58.58687559 190.8930806 -57.35881104 192.10590625 -56.12644958 193.31433487 C-54.41028021 194.99900763 -52.71042975 196.69864123 -51.01367188 198.40283203 C-50.50259888 198.89749969 -49.99152588 199.39216736 -49.46496582 199.90182495 C-47.25567175 202.15110317 -46.06900496 203.57106335 -45.56164551 206.724823 C-46 209 -46 209 -48 211 C-50.86480072 211.21449742 -53.63407939 211.30411658 -56.5012207 211.30639648 C-57.38105621 211.31472 -58.26089172 211.32304352 -59.16738892 211.33161926 C-62.08689757 211.35578825 -65.00618304 211.36450033 -67.92578125 211.37109375 C-69.95118784 211.38005577 -71.97659372 211.38917752 -74.0019989 211.39845276 C-78.25322073 211.41496472 -82.50436361 211.42264672 -86.75561523 211.42553711 C-92.20345652 211.43091915 -97.65055568 211.46858256 -103.09818745 211.51428127 C-107.28379524 211.5440256 -111.46922391 211.55126012 -115.65492821 211.55226326 C-117.66320375 211.5564718 -119.67147953 211.56893138 -121.67965126 211.58978081 C-124.49052016 211.61663695 -127.29966401 211.61188676 -130.1105957 211.59936523 C-130.94039444 211.61419952 -131.77019318 211.62903381 -132.62513733 211.64431763 C-136.89683369 211.59012914 -138.48714163 211.42102317 -141.90458679 208.61552429 C-142.59607315 207.75240128 -143.28755951 206.88927826 -144 206 C-144.79728516 205.19224121 -145.59457031 204.38448242 -146.41601562 203.55224609 C-147.64868164 202.30048584 -147.64868164 202.30048584 -148.90625 201.0234375 C-150.29542937 199.62046486 -151.68462482 198.21750778 -153.07470703 196.81542969 C-154.02669426 195.85333229 -154.9768861 194.88945512 -155.92529297 193.92382812 C-157.30996255 192.51478224 -158.70178386 191.11277574 -160.09375 189.7109375 C-161.32641602 188.46256104 -161.32641602 188.46256104 -162.58398438 187.18896484 C-166.88737866 183.28999221 -170.28944676 181.37374299 -176.06640625 181.5703125 C-179.38193058 182.30709568 -180.97124207 184.41794445 -183 187 C-184.51816358 190.03632717 -184.49607651 191.58947399 -184 195 C-182.29901203 197.37713068 -180.43946294 199.57198672 -178.55859375 201.80859375 C-177 204 -177 204 -176.5625 207.5625 C-176.706875 208.366875 -176.85125 209.17125 -177 210 C-179.28581021 211.14290511 -180.55579464 211.12439631 -183.0949707 211.12597656 C-183.93957352 211.12978333 -184.78417633 211.13359009 -185.65437317 211.13751221 C-186.56893784 211.13853943 -187.4835025 211.13956665 -188.42578125 211.140625 C-190.35613159 211.15895343 -192.28647046 211.17852378 -194.21679688 211.19921875 C-197.26508898 211.22819164 -200.31264522 211.25000002 -203.36108398 211.25048828 C-206.29998316 211.25382334 -209.23717798 211.28837787 -212.17578125 211.328125 C-213.53851921 211.31752045 -213.53851921 211.31752045 -214.92878723 211.30670166 C-219.51104433 211.39477471 -221.38223812 211.49804067 -225.05151367 214.47949219 C-225.69451416 215.31125977 -226.33751465 216.14302734 -227 217 C-227.33 217.33 -227.66 217.66 -228 218 C-228.38387346 222.99035504 -228.08713243 225.99816167 -225 230 C-221.91388292 232.05741139 -221.25018169 232.25129621 -217.75976562 232.27124023 C-216.90878296 232.28142685 -216.05780029 232.29161346 -215.18103027 232.30210876 C-213.80751404 232.30531883 -213.80751404 232.30531883 -212.40625 232.30859375 C-210.47004898 232.33374633 -208.53385113 232.35914446 -206.59765625 232.38476562 C-203.54281382 232.41355704 -200.48802639 232.43757339 -197.43310547 232.45629883 C-194.48636757 232.47789969 -191.54026834 232.51732726 -188.59375 232.55859375 C-187.67807251 232.55870956 -186.76239502 232.55882538 -185.81896973 232.5589447 C-184.96798706 232.57228348 -184.11700439 232.58562225 -183.24023438 232.59936523 C-182.49205444 232.60443588 -181.74387451 232.60950653 -180.97302246 232.61473083 C-178.46197913 233.10505854 -177.54109673 233.99207204 -176 236 C-176.20670545 239.39397009 -177.68261286 240.90888465 -180.0625 243.1875 C-182.56825679 245.9951552 -183.48037099 247.845781 -183.625 251.625 C-183.34046914 255.79337707 -182.086848 258.0947313 -179 261 C-175.32105264 262.83947368 -171.84299236 262.18978092 -168 261 C-162.52585308 257.41692202 -158.45232442 252.77687967 -154.93139648 247.34057617 C-149.5395648 239.80807547 -143.64505705 233.62089848 -134.27099609 231.97485352 C-121.48749605 230.38600986 -108.46315824 231.08467271 -95.62780762 231.57879639 C-90.28503107 231.76084125 -84.94083666 231.82051973 -79.59570312 231.89648438 C-71.82171898 232.03062591 -64.04930467 232.19218584 -56.27905273 232.47143555 C-55.46517593 232.49409485 -54.65129913 232.51675415 -53.8127594 232.5401001 C-48.23240669 232.76759331 -48.23240669 232.76759331 -46 235 C-45.52127075 237.23480225 -45.52127075 237.23480225 -46 240 C-47.81880006 242.29131762 -49.57628185 244.21905375 -51.65966797 246.24316406 C-52.56193115 247.14893188 -52.56193115 247.14893188 -53.48242188 248.07299805 C-55.47389996 250.06609117 -57.48262708 252.04077835 -59.4921875 254.015625 C-60.87846827 255.39511757 -62.26371929 256.77564566 -63.64797974 258.15716553 C-66.55103444 261.04953907 -69.46191141 263.93370504 -72.37939453 266.81152344 C-76.12469226 270.5059063 -79.85697176 274.21308602 -83.58434868 277.92554092 C-87.13307049 281.45949097 -90.68699963 284.98818133 -94.2421875 288.515625 C-94.92337521 289.19190193 -95.60456291 289.86817886 -96.30639267 290.56494904 C-98.22864127 292.47096389 -100.15441535 294.37333391 -102.08154297 296.27441406 C-102.94037582 297.12685699 -102.94037582 297.12685699 -103.81655884 297.996521 C-108.94906464 303.04485504 -111.93736558 303.13231924 -118.953125 303.140625 C-120.78777279 303.15895699 -122.62240855 303.17852767 -124.45703125 303.19921875 C-127.35160547 303.22815959 -130.24540853 303.24999922 -133.14013672 303.25048828 C-135.93266333 303.25383034 -138.72340854 303.28842881 -141.515625 303.328125 C-142.37520813 303.3210553 -143.23479126 303.3139856 -144.12042236 303.30670166 C-148.37639698 303.3925352 -151.1576233 303.68856456 -154.53027344 306.41699219 C-157.18260331 309.19097895 -157.88808438 310.01514254 -158.3125 313.75 C-157.92220973 317.80901885 -156.50412622 319.83301684 -154 323 C-150.76291939 324.61854031 -147.20705115 324.34238623 -143.62890625 324.5234375 C-141 325 -141 325 -139.08984375 326.2265625 C-138 328 -138 328 -138.04516602 330.2019043 C-139.44153071 334.29388481 -142.11128925 336.58784867 -145.1875 339.54296875 C-145.80520264 340.15263992 -146.42290527 340.7623111 -147.05932617 341.39045715 C-149.03031205 343.33248632 -151.01445552 345.26036803 -153 347.1875 C-154.98287447 349.1278843 -156.9629217 351.07107325 -158.94067383 353.01667786 C-160.171333 354.22561751 -161.40545556 355.43104345 -162.64331055 356.63261414 C-167.08732055 360.92948655 -167.08732055 360.92948655 -168.375 366.8125 C-168.34874901 370.4220118 -168.05911955 370.92687846 -165.625 373.9375 C-161.82632518 376.92217308 -159.84227641 377.4656035 -155 377 C-150.22918302 374.23393244 -146.67488813 370.85660567 -142.9375 366.88671875 C-141.80021729 365.70957288 -140.66217387 364.53316157 -139.5234375 363.35742188 C-137.75118902 361.51687723 -135.98500193 359.67160544 -134.23144531 357.81323242 C-132.52419213 356.0093109 -130.79568099 354.22819453 -129.0625 352.44921875 C-128.54357178 351.88788742 -128.02464355 351.32655609 -127.48999023 350.74821472 C-125.97265625 349.2097168 -125.97265625 349.2097168 -123 347 C-119.68359375 347.03442383 -119.68359375 347.03442383 -117 348 C-115.73537572 350.52924855 -115.85694685 352.48986704 -115.75 355.3125 C-115.4096457 359.24720195 -115.14902573 360.78084451 -112.875 364.125 C-109.39108963 366.39711546 -107.1567357 367 -103 367 C-98.77500702 365.27159378 -96.87721865 363.11442305 -95 359 C-95.04770469 356.15386101 -95.24436742 353.54857366 -95.58691406 350.74047852 C-96.98770493 334.26175665 -97.32902636 319.76764027 -86.2818985 306.55054665 C-79.69504225 299.18218664 -72.4010971 292.53423445 -65.01837158 285.98034668 C-61.95358365 283.22026456 -58.97770216 280.37307966 -56.00138474 277.51824093 C-49.86454507 271.63218185 -43.67425088 265.80050962 -37.33496094 260.13256836 C-36.76541183 259.60788467 -36.19586273 259.08320099 -35.60905457 258.5426178 C-33.16722577 256.39571139 -31.47802755 255.07690464 -28.22906494 254.55421448 C-26 255 -26 255 -24 257 C-23.78550258 259.86480072 -23.69588342 262.63407939 -23.69360352 265.5012207 C-23.68528 266.38105621 -23.67695648 267.26089172 -23.66838074 268.16738892 C-23.64421175 271.08689757 -23.63549967 274.00618304 -23.62890625 276.92578125 C-23.61994423 278.95118784 -23.61082248 280.97659372 -23.60154724 283.0019989 C-23.58503528 287.25322073 -23.57735328 291.50436361 -23.57446289 295.75561523 C-23.56908085 301.20345652 -23.53141744 306.65055568 -23.48571873 312.09818745 C-23.4559744 316.28379524 -23.44873988 320.46922391 -23.44773674 324.65492821 C-23.4435282 326.66320375 -23.43106862 328.67147953 -23.41021919 330.67965126 C-23.38336305 333.49052016 -23.38811324 336.29966401 -23.40063477 339.1105957 C-23.38580048 339.94039444 -23.37096619 340.77019318 -23.35568237 341.62513733 C-23.40986765 345.89657999 -23.57858556 347.4868403 -26.38447571 350.90359497 C-27.24759872 351.59540863 -28.11072174 352.28722229 -29 353 C-29.80775879 353.80252197 -30.61551758 354.60504395 -31.44775391 355.43188477 C-32.28226074 356.26002686 -33.11676758 357.08816895 -33.9765625 357.94140625 C-35.37938345 359.33733131 -36.78219667 360.73326423 -38.18457031 362.12963867 C-39.14755215 363.08756077 -40.1114251 364.04458786 -41.07617188 365.00073242 C-42.48284143 366.39523438 -43.88599552 367.79327965 -45.2890625 369.19140625 C-46.53743896 370.43192749 -46.53743896 370.43192749 -47.81103516 371.69750977 C-52.04638362 376.09974961 -52.04638362 376.09974961 -53.4375 381.9375 C-53.29259728 386.02528187 -51.96315444 388.12399716 -49 391 C-45.6899026 392.6550487 -42.54754261 392.78094368 -39 392 C-36.51632041 390.31258313 -34.36502983 388.48676472 -32.17578125 386.43359375 C-30 385 -30 385 -27.29296875 385.16015625 C-25 386 -25 386 -24 388 C-23.89796991 389.33152308 -23.85422309 390.66780072 -23.84228516 392.00317383 C-23.83202301 392.82775589 -23.82176086 393.65233795 -23.81118774 394.50190735 C-23.80388641 395.39459824 -23.79658508 396.28728912 -23.7890625 397.20703125 C-23.76099036 399.09180551 -23.73232587 400.97657102 -23.703125 402.86132812 C-23.66188157 405.83699263 -23.62500005 408.81249447 -23.59863281 411.78833008 C-23.57099742 414.65740845 -23.52512143 417.52574087 -23.4765625 420.39453125 C-23.4716832 421.72445854 -23.4716832 421.72445854 -23.46670532 423.08125305 C-23.37201517 427.84842737 -23.14274684 431.16159064 -20 435 C-16.27420911 437.48386059 -14.41288598 437.3804212 -10 437 C-6.16821569 435.29698475 -4.56250266 433.84083072 -3 430 C-2.69754993 427.87717895 -2.69754993 427.87717895 -2.72875977 425.63037109 C-2.71347984 424.34916885 -2.71347984 424.34916885 -2.69789124 423.04208374 C-2.69575119 422.12843048 -2.69361115 421.21477722 -2.69140625 420.2734375 C-2.66626226 418.33593428 -2.64086402 416.39843435 -2.61523438 414.4609375 C-2.58640252 411.40821063 -2.56238093 408.35554048 -2.54370117 405.30273438 C-2.52213948 402.35518031 -2.48272607 399.40827083 -2.44140625 396.4609375 C-2.44129044 395.54323578 -2.44117462 394.62553406 -2.4410553 393.68002319 C-2.42771652 392.83219269 -2.41437775 391.98436218 -2.40063477 391.11083984 C-2.39556412 390.36345551 -2.39049347 389.61607117 -2.38526917 388.84603882 C-2 387 -2 387 1 385 C4.39625502 385.31360312 5.88699555 386.65975091 8.1875 389.0625 C10.9951552 391.56825679 12.845781 392.48037099 16.625 392.625 C20.79337707 392.34046914 23.0947313 391.086848 26 388 C27.60952276 384.78095448 27.51212394 381.4881145 27 378 C25.28418626 375.09791633 25.28418626 375.09791633 22.625 372.625 C22.17122986 372.13841919 21.71745972 371.65183838 21.24993896 371.1505127 C18.19958767 367.94461767 15.20576086 365.41504352 11.45947266 363.05029297 C5.10947751 358.61537056 -0.62142104 353.51784018 -2.55806732 345.76630402 C-4.81419101 332.29960582 -3.84522709 318.27592506 -3.35253906 304.69647217 C-3.18093236 299.34693962 -3.12565427 293.99616102 -3.0546875 288.64453125 C-2.9284122 280.859783 -2.77727075 273.07631354 -2.51269531 265.29492188 C-2.49160706 264.47947403 -2.4705188 263.66402618 -2.4487915 262.8238678 C-2.23216374 257.23216374 -2.23216374 257.23216374 0 255 C2.22906494 254.55421448 2.22906494 254.55421448 5 255 C7.308892 256.63589578 9.26867468 258.22905085 11.33496094 260.13256836 C11.94855972 260.6811853 12.56215851 261.22980225 13.1943512 261.79504395 C19.66159046 267.62220777 25.95689824 273.63883056 32.23876953 279.66430664 C35.20498415 282.49819792 38.21485239 285.26703632 41.28271484 287.99047852 C69.01188165 312.67486458 69.01188165 312.67486458 70.25046158 331.93356037 C70.47104628 338.97957353 70.15871073 346.05306003 69.30492401 353.05214882 C68.78190844 357.72595889 69.06639904 360.27146838 72 364 C74.37162473 366.37162473 75.58515949 366.94704164 78.9375 367.375 C82.40090589 366.95090948 84.22288135 366.08283899 87 364 C89.1889555 360.71656676 89.29346423 359.34156538 89.5 355.5 C89.70653577 351.65843462 89.8110445 350.28343324 92 347 C94.21826172 346.43408203 94.21826172 346.43408203 97 347 C99.37576994 348.95159234 101.40172579 350.84300067 103.5078125 353.0546875 C104.115112 353.67143341 104.7224115 354.28817932 105.34811401 354.9236145 C107.28587164 356.89595659 109.20577279 358.88463689 111.125 360.875 C113.05470061 362.85468538 114.98789839 364.83085983 116.92330933 366.80496216 C118.12607608 368.03410002 119.32489966 369.26711163 120.51931763 370.50436401 C125.11573924 375.40883172 125.11573924 375.40883172 131.3125 377.4375 C135.01117662 376.99867396 137.10213157 376.28362581 139.81640625 373.6796875 C142.23371286 370.24918638 142.60566174 367.09336694 142 363 C138.71303372 357.81223934 133.64822569 353.64012073 129.25 349.3984375 C128.74345383 348.90888077 128.23690765 348.41932404 127.7150116 347.91493225 C124.55430648 344.86329765 124.55430648 344.86329765 121.36669922 341.83984375 C119.79067627 340.35451691 118.23790963 338.84792103 116.6875 337.3359375 C115.30111328 336.01408447 115.30111328 336.01408447 113.88671875 334.66552734 C112 332 112 332 112.08203125 328.72900391 C113 326 113 326 115 325 C116.76982166 324.89740164 118.54097809 324.81712126 120.3125 324.75 C124.4778148 324.41699318 125.72208759 324.21677168 129.125 321.5625 C131.89370779 317.77859936 132.54470912 315.72081234 132 311 C129.94696376 307.56770389 127.87134276 305.29044759 124 304 C122.08631164 304.15087288 120.17273751 304.30938583 118.26438904 304.51716423 C102.85450214 306.12672258 86.62228033 307.16048259 73.83203125 297.20556641 C65.66337391 290.40019536 58.53730809 282.48294161 51.50219727 274.54022217 C48.7984253 271.53190083 46.00771679 268.61236424 43.20922089 265.69236469 C37.43341406 259.66558164 31.71259639 253.58508589 26.15429688 247.35668945 C25.6425592 246.80008636 25.13082153 246.24348328 24.60357666 245.67001343 C21.58796265 242.23385439 20.08951273 239.61938906 20 235 C22.60205795 232.39794205 24.42276459 232.7464563 27.96827698 232.70672607 C28.80414841 232.70763245 29.64001984 232.70853882 30.5012207 232.70947266 C31.38105621 232.70275543 32.26089172 232.69603821 33.16738892 232.68911743 C36.08690991 232.67006165 39.00620187 232.66620918 41.92578125 232.6640625 C43.95118811 232.65763893 45.97659402 232.65091091 48.0019989 232.64389038 C52.25322623 232.631898 56.50437218 232.62821148 60.75561523 232.62939453 C66.20335463 232.62959762 71.65057178 232.60231417 77.09818745 232.56785011 C81.28379207 232.54560991 85.46927055 232.54155614 89.65492821 232.54261398 C91.66318751 232.54025296 93.67145002 232.53140134 95.67965126 232.51594925 C98.49033724 232.49635127 101.29989146 232.50210336 104.1105957 232.51416016 C104.94039444 232.50292114 105.77019318 232.49168213 106.62513733 232.48010254 C111.71675165 232.53559824 114.26834186 233.23758547 118 237 C118.886875 237.845625 119.77375 238.69125 120.6875 239.5625 C123 242 123 242 125 245 C125.66 245 126.32 245 127 245 C127.23074219 245.55558594 127.46148437 246.11117187 127.69921875 246.68359375 C129.35191392 249.62668155 131.42008788 251.68443518 133.8125 254.0625 C134.66457031 254.91972656 135.51664062 255.77695312 136.39453125 256.66015625 C140.78678516 260.61588901 140.78678516 260.61588901 146.31640625 262.25 C150.25440962 261.8116831 152.41509269 261.49717121 155.5 258.875 C157.41796524 255.19889995 158.20960682 253.19213632 158 249 C156.35382491 246.55632558 154.51801245 244.38595093 152.59375 242.15625 C151 240 151 240 150.5625 236.4375 C150.706875 235.633125 150.85125 234.82875 151 234 C153.25467135 232.87266433 154.50136547 232.86465075 157.00317383 232.84228516 C157.82775589 232.83202301 158.65233795 232.82176086 159.50190735 232.81118774 C160.84094368 232.80023575 160.84094368 232.80023575 162.20703125 232.7890625 C164.09180551 232.76099036 165.97657102 232.73232587 167.86132812 232.703125 C170.83699263 232.66188157 173.81249447 232.62500005 176.78833008 232.59863281 C179.65740845 232.57099742 182.52574087 232.52512143 185.39453125 232.4765625 C186.72445854 232.4716832 186.72445854 232.4716832 188.08125305 232.46670532 C192.86638191 232.37165854 196.11019441 232.10053495 200 229 C202.56619697 225.57840405 202.50984054 222.15155867 202 218 C199.8272578 215.36983839 198.05326212 213.52663106 195 212 C193.6219317 211.89770559 192.23923028 211.85419857 190.85742188 211.84228516 C190.00313599 211.83202301 189.1488501 211.82176086 188.26867676 211.81118774 C187.34470093 211.80388641 186.4207251 211.79658508 185.46875 211.7890625 C183.52473101 211.76100428 181.5807207 211.73233989 179.63671875 211.703125 C176.56201321 211.66176787 173.48747139 211.624893 170.41259766 211.59863281 C167.45180604 211.57113467 164.49175814 211.52527454 161.53125 211.4765625 C160.14528625 211.4716832 160.14528625 211.4716832 158.73132324 211.46670532 C157.87703735 211.45013885 157.02275146 211.43357239 156.14257812 211.41650391 C155.012453 211.40437363 155.012453 211.40437363 153.85949707 211.39199829 C152 211 152 211 150 208 C150.32078759 204.58054084 151.83465496 202.82475079 154.0625 200.3125 C156.9499339 196.56512816 157.93848236 193.78847276 157.578125 189.0546875 C156.80651107 186.3123299 155.27817502 184.57949439 153.09375 182.77734375 C149.73155298 181.52906538 146.49678318 181.41505701 143 182 C140.09791633 183.71581374 140.09791633 183.71581374 137.625 186.375 C137.13841919 186.82877014 136.65183838 187.28254028 136.1505127 187.75006104 C132.94461767 190.80041233 130.41504352 193.79423914 128.05029297 197.54052734 C123.61537056 203.89052249 118.51784018 209.62142104 110.76630402 211.55806732 C97.29960582 213.81419101 83.27592506 212.84522709 69.69647217 212.35253906 C64.34693962 212.18093236 58.99616102 212.12565427 53.64453125 212.0546875 C45.859783 211.9284122 38.07631354 211.77727075 30.29492188 211.51269531 C29.47947403 211.49160706 28.66402618 211.4705188 27.8238678 211.4487915 C22.23216374 211.23216374 22.23216374 211.23216374 20 209 C19.55421448 206.77093506 19.55421448 206.77093506 20 204 C21.63589578 201.691108 23.22905085 199.73132532 25.13256836 197.66503906 C25.6811853 197.05144028 26.22980225 196.43784149 26.79504395 195.8056488 C32.62220777 189.33840954 38.63883056 183.04310176 44.66430664 176.76123047 C47.49819792 173.79501585 50.26703632 170.78514761 52.99047852 167.71728516 C77.67486458 139.98811835 77.67486458 139.98811835 96.93356037 138.74953842 C103.97957353 138.52895372 111.05306003 138.84128927 118.05214882 139.69507599 C122.71959535 140.21737946 125.29193435 139.96033386 129 137 C131.5290797 133.96510436 132 132.48112565 132 128.5 C130.74718465 124.11514629 129.78795592 122.57581003 126 120 C123.14829276 119.54973044 120.40959201 119.37547386 117.5234375 119.3359375 C115 119 115 119 113.1015625 117.7890625 C112 116 112 116 112.06030273 113.77905273 C113.38623408 109.85775459 116.00731361 107.53636014 118.93359375 104.74609375 C119.52672867 104.16336197 120.11986359 103.58063019 120.73097229 102.98023987 C122.62388303 101.12288682 124.52962159 99.27946507 126.4375 97.4375 C128.34003145 95.59029567 130.23953389 93.74022279 132.13331604 91.88404846 C133.3108773 90.73090016 134.49374542 89.58313995 135.68247986 88.44151306 C139.42444689 84.79053376 141.75591738 82.29437662 142.3125 77.0625 C141.95328773 73.54221975 141.16379476 71.78202183 139 69 C136.5982138 67.19866035 134.73332492 66.9538447 131.75 66.4375 C124.34689149 67.54796628 119.41661132 74.53743306 114.3984375 79.75 C113.6642157 80.50984947 113.6642157 80.50984947 112.91516113 81.28504944 C109.86331083 84.4456265 109.86331083 84.4456265 106.83984375 87.63330078 C105.35451691 89.20932373 103.84792103 90.76209037 102.3359375 92.3125 C101.01408447 93.69888672 101.01408447 93.69888672 99.66552734 95.11328125 C97 97 97 97 93.72900391 96.91796875 C91 96 91 96 90 94 C89.89740164 92.23017834 89.81712126 90.45902191 89.75 88.6875 C89.41699318 84.5221852 89.21677168 83.27791241 86.5625 79.875 C82.77859936 77.10629221 80.72081234 76.45529088 76 77 C73.07062346 78.81310142 70.56352051 80.87295899 69 84 C68.92762673 86.96730398 68.91161558 89.91586102 68.9296875 92.8828125 C68.92109789 94.70834284 68.91061997 96.5338651 68.8984375 98.359375 C68.88178906 101.23661655 68.87488529 104.11205985 68.90039062 106.98925781 C68.92147339 109.76739188 68.89801261 112.54232862 68.8671875 115.3203125 C68.88457977 116.16957306 68.90197205 117.01883362 68.91989136 117.89382935 C68.77686504 125.05019336 66.00079476 128.14909659 61 133 C59.57498118 134.47109231 58.15012095 135.94234098 56.72768784 137.41593361 C53.92133152 140.30956458 51.08072593 143.16923875 48.2421875 146.03125 C47.33444265 146.94698036 47.33444265 146.94698036 46.40835953 147.88121033 C43.21568833 151.10041443 40.01948631 154.31606941 36.82080078 157.52929688 C34.1796399 160.18388128 31.54597336 162.84558241 28.91845703 165.51367188 C25.73133982 168.74997398 22.53224499 171.97395228 19.32400894 175.1893158 C18.1069194 176.41312441 16.89409375 177.64118896 15.68566513 178.87355042 C14.00099237 180.58971979 12.30135877 182.28957025 10.59716797 183.98632812 C10.10250031 184.49740112 9.60783264 185.00847412 9.09817505 185.53503418 C6.84889683 187.74432825 5.42893665 188.93099504 2.275177 189.43835449 C0 189 0 189 -2 187 C-2.21449742 184.13519928 -2.30411658 181.36592061 -2.30639648 178.4987793 C-2.31472 177.61894379 -2.32304352 176.73910828 -2.33161926 175.83261108 C-2.35578825 172.91310243 -2.36450033 169.99381696 -2.37109375 167.07421875 C-2.38005577 165.04881216 -2.38917752 163.02340628 -2.39845276 160.9980011 C-2.41496472 156.74677927 -2.42264672 152.49563639 -2.42553711 148.24438477 C-2.43091915 142.79654348 -2.46858256 137.34944432 -2.51428127 131.90181255 C-2.5440256 127.71620476 -2.55126012 123.53077609 -2.55226326 119.34507179 C-2.5564718 117.33679625 -2.56893138 115.32852047 -2.58978081 113.32034874 C-2.61663695 110.50947984 -2.61188676 107.70033599 -2.59936523 104.8894043 C-2.62161667 103.64470619 -2.62161667 103.64470619 -2.64431763 102.37486267 C-2.58932952 98.04013244 -2.43651066 96.51561698 0.47105408 93.08113098 C1.30560623 92.39435776 2.14015839 91.70758453 3 91 C3.350625 90.278125 3.70125 89.55625 4.0625 88.8125 C5 87 5 87 6.83569336 86.09301758 C9.20250182 84.89773258 10.69214433 83.56629467 12.56640625 81.69921875 C13.21673828 81.05146484 13.86707031 80.40371094 14.53710938 79.73632812 C15.20548828 79.06021484 15.87386719 78.38410156 16.5625 77.6875 C17.23474609 77.02298828 17.90699219 76.35847656 18.59960938 75.67382812 C24.7841141 69.56480728 24.7841141 69.56480728 27.4375 61.5 C26.92886205 57.4308964 25.86654931 55.86654931 23 53 C19.4907138 51.2453569 15.81909279 51.30276431 12 52 C9.98580959 53.39287764 8.37372547 54.93906063 6.640625 56.6640625 C5 58 5 58 1.5625 58.375 C0.716875 58.25125 -0.12875 58.1275 -1 58 C-2.14290511 55.71418979 -2.12439631 54.44420536 -2.12597656 51.9050293 C-2.12978333 51.06042648 -2.13359009 50.21582367 -2.13751221 49.34562683 C-2.13853943 48.43106216 -2.13956665 47.5164975 -2.140625 46.57421875 C-2.15895343 44.64386841 -2.17852378 42.71352954 -2.19921875 40.78320312 C-2.22819164 37.73491102 -2.25000002 34.68735478 -2.25048828 31.63891602 C-2.25382334 28.70001684 -2.28837787 25.76282202 -2.328125 22.82421875 C-2.31752045 21.46148079 -2.31752045 21.46148079 -2.30670166 20.07121277 C-2.39393812 15.53248198 -2.51454061 13.61290474 -5.41699219 9.94848633 C-11.31368411 5.5003296 -16.67987996 5.67987996 -22 11 Z " fill="#252122" transform="translate(269,34)"/>
</svg>
